/* XPM */
static char *result[] = {
/* columns rows colors chars-per-pixel */
"64 64 121 2 ",
"   c #000101",
".  c #0D0101",
"X  c #00010E",
"o  c #0A010D",
"O  c #00090A",
"+  c #120001",
"@  c #1B0102",
"#  c #13010C",
"$  c #1D020E",
"%  c #000113",
"&  c #0D0213",
"*  c #000318",
"=  c #170112",
"-  c #1F0213",
";  c #00131A",
":  c #230101",
">  c #2C0101",
",  c #25020F",
"<  c #2C0409",
"1  c #320101",
"2  c #3B0102",
"3  c #30010E",
"4  c #39070B",
"5  c #3A0808",
"6  c #220211",
"7  c #211316",
"8  c #181321",
"9  c #460201",
"0  c #4C0102",
"q  c #4A050B",
"w  c #4C090A",
"e  c #540101",
"r  c #5E0101",
"t  c #460112",
"y  c #591018",
"u  c #620102",
"i  c #6F0504",
"p  c #640A0B",
"a  c #6C0A0A",
"s  c #740302",
"d  c #7A0504",
"f  c #720708",
"g  c #7A0A0B",
"h  c #6D0714",
"j  c #6E0F1B",
"k  c #720E14",
"l  c #810404",
"z  c #850907",
"x  c #8B070A",
"c  c #860B0B",
"v  c #8C0B0B",
"b  c #920303",
"n  c #9E0101",
"m  c #990807",
"M  c #96040F",
"N  c #940B0B",
"B  c #990C0C",
"V  c #8C0E14",
"C  c #9A0610",
"Z  c #941015",
"A  c #A90100",
"S  c #AD0807",
"D  c #A0060C",
"F  c #AB060F",
"G  c #A20D0D",
"H  c #AA0B0C",
"J  c #B30606",
"K  c #B90106",
"L  c #BE0807",
"P  c #B30C0D",
"I  c #BB0A09",
"U  c #C30000",
"Y  c #CE0202",
"T  c #C10907",
"R  c #C90907",
"E  c #C50508",
"W  c #C2090A",
"Q  c #CA090A",
"!  c #D20203",
"~  c #DC0202",
"^  c #DA0709",
"/  c #D10C0B",
"(  c #C3100F",
")  c #C41C1C",
"_  c #E60605",
"`  c #EB0203",
"'  c #E70806",
"]  c #EB0806",
"[  c #E7070B",
"{  c #E7080A",
"}  c #ED0A0A",
"|  c #F40102",
" . c #FE0000",
".. c #F40909",
"X. c #FD0A0A",
"o. c #EE1D1D",
"O. c #FC1415",
"+. c #FD1D1E",
"@. c #FC1F20",
"#. c #FE2525",
"$. c #FE2B2B",
"%. c #FE3434",
"&. c #FD3A3B",
"*. c #FE4545",
"=. c #FC4B4B",
"-. c #FE5050",
";. c #FE5B5B",
":. c #FD6A6A",
">. c #FE8B8B",
",. c #FE9292",
"<. c #F7A8A8",
"1. c #FEACAD",
"2. c #FEB2B2",
"3. c #FEBEBE",
"4. c #FEC1C1",
"5. c #FFD4D4",
"6. c #FFDADA",
"7. c #FEEDED",
"8. c #FFF5F5",
"9. c #FFFEFE",
"0. c None",
/* pixels */
"0.0.0.0.0.0.0.0.0.0.0.0.0.0.0.0.0.0.0.0.0.0.0.0.0.0.0.0.0.0.0.0.0.0.0.0.0.0.0.0.0.0.0.0.0.0.0.0.0.0.0.0.0.0.0.0.0.0.0.0.0.0.0.0.",
"0.0.0.0.0.0.0.0.0.0.0.0.0.0.0.0.0.0.0.0.0.0.0.0.0.0.0.0.0.0.0.0.0.0.0.0.0.0.0.0.0.0.0.0.0.0.0.0.0.0.0.0.0.0.0.0.0.0.0.0.0.0.0.0.",
"0.0.0.0.0.0.0.0.0.0.0.0.0.0.0.0.0.0.0.0.0.0.0.0.0.0.0.0.0.0.0.0.0.0.0.0.0.0.0.0.0.0.0.0.0.0.0.0.0.0.0.0.0.0.0.0.0.0.0.0.0.0.0.0.",
"0.0.0.0.0.0.0.0.0.0.0.0.0.0.0.0.0.0.0.0.0.0.0.0.0.0.0.0.0.0.0.0.0.0.0.0.0.0.0.0.0.0.0.0.0.0.0.0.0.0.0.0.0.0.0.0.0.0.0.0.0.0.0.0.",
"0.0.0.0.0.0.0.0.0.0.0.0.0.0.0.0.0.0.0.0.0.0.0.0.0.0.0.0.0.0.0.0.0.0.0.0.0.0.0.0.0.0.0.0.0.0.0.0.0.0.0.0.0.0.0.0.0.0.0.0.0.0.0.0.",
"0.0.0.0.0.0.0.0.0.0.0.0.0.0.0.0.0.0.0.0.0.0.0.0.0.0.0.0.0.0.0.0.0.0.0.0.0.0.0.0.0.0.0.0.0.0.0.0.0.0.0.0.0.0.0.0.0.0.0.0.0.0.0.0.",
"0.0.0.0.0.0.0.0.0.0.0.0.0.0.0.0.0.0.0.0.0.0.0.0.0.0.0.0.0.0.0.0.0.0.0.0.0.0.0.0.0.0.0.0.0.0.0.0.0.0.0.0.0.0.0.0.0.0.0.0.0.0.0.0.",
"0.0.0.0.0.0.0.0.0.0.0.0.0.0.0.0.0.0.0.0.0.0.0.0.0.0.0.0.0.0.0.0.0.0.0.0.0.0.0.0.0.0.0.0.0.0.0.0.0.0.0.0.0.0.0.0.0.0.0.0.0.0.0.0.",
"0.0.0.0.0.0.0.0.0.0.0.0.0.0.0.0.0.0.0.0.0.0.0.0.0.0.0.0.0.0.0.0.0.0.0.0.0.0.0.0.0.0.0.0.0.0.0.0.0.0.0.0.0.0.0.0.0.0.0.0.0.0.0.0.",
"0.0.0.0.0.0.0.0.0.0.%                               0.0.0.0.0.0.0.0.0.0.0.0.                              0.0.0.0.0.0.0.0.0.0.0.",
"0.0.0.0.0.0.0.0.0.0., 1 > 1 > > > 1 > 1 > 1 > > 1 > 0.0.0.0.0.0.0.0.0.0.0.0.1 1 > 1 > > 1 > > 1 > > > 1 > 0.0.0.0.0.0.0.0.0.0.0.",
"0.0.0.0.0.0.0.0.0.0.      O                         0.0.0.0.0.0.0.0.0.0.0.0.                            O 0.0.0.0.0.0.0.0.0.0.0.",
"0.0.0.0.0.0.0.0.0.0.e d s i i s s d d d d g d d l g 0.0.0.0.0.0.0.0.0.0.0.0.l d d d d d d d d d d d d d d 0.0.0.0.0.0.0.0.0.0.0.",
"0.0.0.0.0.0.% + @   J  . . ...O.O.O.X.| |  . .|  .` 0   : X 0.0.0.0.X @   N X.| |  .|  .X. . .|  . . . .| u   > X 0.0.0.0.0.0.0.",
"0.0.0.0.0.0.& + :   J  . .X. . . . . .X. . . . . .| e   1 = 0.0.0.0.@ :   m  . . . . . . . . . . . . . .| u   1 # 0.0.0.0.0.0.0.",
"0.0.0.0.0.0.%     O S  .X. .-.:.:.:.&. .X. . .|  .` @     % 0.0.0.0.      x  . . . . . . . . . . . . . .| 9     % 0.0.0.0.0.0.0.",
"0.0.0.0.0.0.K ~ ! ! `  .#. .5.9.9.9.,. .$. . . . .| H B H V 0.0.0.j G G B R  . . . . . . . . . . . . . .| P B H Z 0.0.0.0.0.0.0.",
"0.0.0.O >   ~  . . .O.#.%. .6.9.9.9.,. .$. . . . . .X. . .^   2   B X. .X. . . . . . . . . . . . . . . . . .X. .} <   + % 0.0.0.",
"0.0.0.  >   Y  .| X. . . . .6.9.9.9.,. .$. . . . . . . . .!   0   m  . .|  . . . . . . . . . . . . . . . . .|  ._ >   . X 0.0.0.",
"0.0.0.  >   !  .X. .&.;.;.&.6.9.8.8.>. .$. . . . . . .|  .R       z  . . . . . . . . . . . . . . . . . . . . . .' <   + % 0.0.0.",
"0.0.0.  >   Y X.+. .1.9.8.9.3. .-.*.#. .X. . . . . . . . .` P I P /  . . . . . . . . . . . . . . . . . . . .|  .{ :   + X 0.0.0.",
"0.0.0.  >   ! X.@. .2.9.9.9.3. . . . .X. . . . . . . . . . .X. . . . . . . . . . . . . . . . . . . . . . . . . .' >   + X 0.0.0.",
"0.0.0.  >   T X.+. .2.9.9.9.3. .$.X.X. . . . . . . . . . .|  .|  . . . . . . . . . . . . . . . . . . . . . . . .' <   + X 0.0.0.",
"0.0.0.  >   L X.+.| 2.9.9.9.3. .#. . . . . . . . . . . . . . . . . . . . . . . . . . . . . . . . . . . . . .|  .' >   + X 0.0.0.",
"0.0.0.  >   L X.+. .2.9.9.9.3. .#. . . . . . . . . . . . . . . . . . . . . . . . . . . . . . . . . . . . . . . .' :   + X 0.0.0.",
"0.0.0.  >   L X.@. .2.9.9.9.3. .#. . . . . . . . . . . . . . . . . . . . . . . . . . . . . . . . . . . . . .|  .' <   + X 0.0.0.",
"0.0.0.  1   T X.+. .2.9.9.9.4. .#. .X. . . . . . . . . . . . . . . . . . . . . . . . . . . . . . . . . . . . . .' <   + X 0.0.0.",
"0.0.0.  >   J X.o.` <.9.7.9.2. .#. . . . . . . . . . . . . . . . . . . . . . . . . . . . . . . . . . . .| | ` | ^ >   + X 0.0.0.",
"0.0.0.0.0.0.6 > >   ) $.#.$.+. . . . . . . . . . . . . . . . . . . . . . . . . . . . . . . . . . . . . .| u   2 6 0.0.0.0.0.0.0.",
"0.0.0.0.0.0.%     O U  .|  . . . . . . . . . . . . . . . . . . . . . . . . . . . . . . . . . . . . . . .| r   @ X 0.0.0.0.0.0.0.",
"0.0.0.0.0.0.& @ +   W O.O.O.X. . . . . . . . . . . . . . . . . . . . . . . . . . . . . . . . . . . . . .| u   > o 0.0.0.0.0.0.0.",
"0.0.0.0.0.0.% + .   W  . . . . . . . . . . . . . . . . . . . . . . . . . . . . . . . . . . . . . . . . .| u   > % 0.0.0.0.0.0.0.",
"0.0.0.0.0.0.% + .   W  .|  . . . . . . . . . . . . . . . . . . . . . . . . . . . . . . . . . . . . . . .| u   > X 0.0.0.0.0.0.0.",
"0.0.0.0.0.0.* . .   W  . . . . . . . . . . . . . . . . . . . . . . . . . . . . . . . . . . . . . . . . .| u   > X 0.0.0.0.0.0.0.",
"0.0.0.0.0.0.% @ .   R  . . . . . . . . . . . . . . . . . . . . . . . . . . . . . . . . . . . . . . . . .| u   > X 0.0.0.0.0.0.0.",
"0.0.0.0.0.0.0.+ .   F ~ ! Y `  . . . . . . . . . . . . . . . . . . . . . . . . . . . . . . . . . .~ ! ! Q y   : X 0.0.0.0.0.0.0.",
"0.0.0.0.0.0.0.0.0.0.*       Q  .|  . . . . . . . . . . . . . . . . . . . . . . . . . . . . . . . .l     ; 0.0.0.0.0.0.0.0.0.0.0.",
"0.0.0.0.0.0.0.0.0.0.- @ 1   R  . . . . . . . . . . . . . . . . . . . . . . . . . . . . . . .|  . .b   > 7 0.0.0.0.0.0.0.0.0.0.0.",
"0.0.0.0.0.0.0.0.0.0.& o > X / X.X.X. . . . . . . . . . . . . . . . . . . . . . . . . . . .X.X. .X.b X : 8 0.0.0.0.0.0.0.0.0.0.0.",
"0.0.0.0.0.0.0.0.0.0.0.0.0.0.k v g v |  . . . . . . . . . . . . . . . . . . . . . . . . . .I a v z 0.0.0.0.0.0.0.0.0.0.0.0.0.0.0.",
"0.0.0.0.0.0.0.0.0.0.0.0.0.0.%     1 `  .|  . . . . . . . . . . . . . . . . . . . . .|  . .b       0.0.0.0.0.0.0.0.0.0.0.0.0.0.0.",
"0.0.0.0.0.0.0.0.0.0.0.0.0.0.@ 1   e |  . . . . . . . . . . . . . . . . . . . . . . . . . .n   2 + 0.0.0.0.0.0.0.0.0.0.0.0.0.0.0.",
"0.0.0.0.0.0.0.0.0.0.0.0.0.0.* , X q [ X..... . . . . . . . . . . . . . . . . . . . .....X.M X 3 X 0.0.0.0.0.0.0.0.0.0.0.0.0.0.0.",
"0.0.0.0.0.0.0.0.0.0.0.0.0.0.0.0.0.0.a a p g |  .|  . . . . . . . . . . . . . .|  .J w a a 0.0.0.0.0.0.0.0.0.0.0.0.0.0.0.0.0.0.0.",
"0.0.0.0.0.0.0.0.0.0.0.0.0.0.0.0.0.0.      > |  . . . . . . . . . . . . . . . . . .n       0.0.0.0.0.0.0.0.0.0.0.0.0.0.0.0.0.0.0.",
"0.0.0.0.0.0.0.0.0.0.0.0.0.0.0.0.0.0.: >   e |  . . . . . . . . . . . . . . . . . .A   > > 0.0.0.0.0.0.0.0.0.0.0.0.0.0.0.0.0.0.0.",
"0.0.0.0.0.0.0.0.0.0.0.0.0.0.0.0.0.0.% & % t } } } }  . . . . . . . . .|  ...} ' ..C % = % 0.0.0.0.0.0.0.0.0.0.0.0.0.0.0.0.0.0.0.",
"0.0.0.0.0.0.0.0.0.0.0.0.0.0.0.0.0.0.0.0.0.0.4 q O f |  .|  . . . . . . . .( O q 5 0.0.0.0.0.0.0.0.0.0.0.0.0.0.0.0.0.0.0.0.0.0.0.",
"0.0.0.0.0.0.0.0.0.0.0.0.0.0.0.0.0.0.0.0.0.0.  +   r | |  .|  . . .|  . . .I   +   0.0.0.0.0.0.0.0.0.0.0.0.0.0.0.0.0.0.0.0.0.0.0.",
"0.0.0.0.0.0.0.0.0.0.0.0.0.0.0.0.0.0.0.0.0.0.@ 2   s  . . . . . . .X. . . .Q   2 @ 0.0.0.0.0.0.0.0.0.0.0.0.0.0.0.0.0.0.0.0.0.0.0.",
"0.0.0.0.0.0.0.0.0.0.0.0.0.0.0.0.0.0.0.0.0.0.  >   u ! ~ ! ~  . . .` ! ! ^ F   >   0.0.0.0.0.0.0.0.0.0.0.0.0.0.0.0.0.0.0.0.0.0.0.",
"0.0.0.0.0.0.0.0.0.0.0.0.0.0.0.0.0.0.0.0.0.0.0.0.0.0.      f  . . .W       % 0.0.0.0.0.0.0.0.0.0.0.0.0.0.0.0.0.0.0.0.0.0.0.0.0.0.",
"0.0.0.0.0.0.0.0.0.0.0.0.0.0.0.0.0.0.0.0.0.0.0.0.0.0.  @   d  .| X.T   + @ % 0.0.0.0.0.0.0.0.0.0.0.0.0.0.0.0.0.0.0.0.0.0.0.0.0.0.",
"0.0.0.0.0.0.0.0.0.0.0.0.0.0.0.0.0.0.0.0.0.0.0.0.0.0.  @   l  . . .R   + + % 0.0.0.0.0.0.0.0.0.0.0.0.0.0.0.0.0.0.0.0.0.0.0.0.0.0.",
"0.0.0.0.0.0.0.0.0.0.0.0.0.0.0.0.0.0.0.0.0.0.0.0.0.0.  @   h E U Y D   . + 0.0.0.0.0.0.0.0.0.0.0.0.0.0.0.0.0.0.0.0.0.0.0.0.0.0.0.",
"0.0.0.0.0.0.0.0.0.0.0.0.0.0.0.0.0.0.0.0.0.0.0.0.0.0.0.0.0.0.%     % 0.0.0.0.0.0.0.0.0.0.0.0.0.0.0.0.0.0.0.0.0.0.0.0.0.0.0.0.0.0.",
"0.0.0.0.0.0.0.0.0.0.0.0.0.0.0.0.0.0.0.0.0.0.0.0.0.0.0.0.0.0., : : - 0.0.0.0.0.0.0.0.0.0.0.0.0.0.0.0.0.0.0.0.0.0.0.0.0.0.0.0.0.0.",
"0.0.0.0.0.0.0.0.0.0.0.0.0.0.0.0.0.0.0.0.0.0.0.0.0.0.0.0.0.0.& . o & 0.0.0.0.0.0.0.0.0.0.0.0.0.0.0.0.0.0.0.0.0.0.0.0.0.0.0.0.0.0.",
"0.0.0.0.0.0.0.0.0.0.0.0.0.0.0.0.0.0.0.0.0.0.0.0.0.0.0.0.0.0.0.0.0.0.0.0.0.0.0.0.0.0.0.0.0.0.0.0.0.0.0.0.0.0.0.0.0.0.0.0.0.0.0.0.",
"0.0.0.0.0.0.0.0.0.0.0.0.0.0.0.0.0.0.0.0.0.0.0.0.0.0.0.0.0.0.0.0.0.0.0.0.0.0.0.0.0.0.0.0.0.0.0.0.0.0.0.0.0.0.0.0.0.0.0.0.0.0.0.0.",
"0.0.0.0.0.0.0.0.0.0.0.0.0.0.0.0.0.0.0.0.0.0.0.0.0.0.0.0.0.0.0.0.0.0.0.0.0.0.0.0.0.0.0.0.0.0.0.0.0.0.0.0.0.0.0.0.0.0.0.0.0.0.0.0.",
"0.0.0.0.0.0.0.0.0.0.0.0.0.0.0.0.0.0.0.0.0.0.0.0.0.0.0.0.0.0.0.0.0.0.0.0.0.0.0.0.0.0.0.0.0.0.0.0.0.0.0.0.0.0.0.0.0.0.0.0.0.0.0.0.",
"0.0.0.0.0.0.0.0.0.0.0.0.0.0.0.0.0.0.0.0.0.0.0.0.0.0.0.0.0.0.0.0.0.0.0.0.0.0.0.0.0.0.0.0.0.0.0.0.0.0.0.0.0.0.0.0.0.0.0.0.0.0.0.0.",
"0.0.0.0.0.0.0.0.0.0.0.0.0.0.0.0.0.0.0.0.0.0.0.0.0.0.0.0.0.0.0.0.0.0.0.0.0.0.0.0.0.0.0.0.0.0.0.0.0.0.0.0.0.0.0.0.0.0.0.0.0.0.0.0."
};
