/* XPM */
static char *result[] = {
/* columns rows colors chars-per-pixel */
"64 64 67 1 ",
"  c #010001",
". c #0C0001",
"X c #00010D",
"o c #0B010A",
"O c #130102",
"+ c #1B0102",
"@ c #130208",
"# c #1D020A",
"$ c #010113",
"% c #0A0112",
"& c #01021A",
"* c #080319",
"= c #10001D",
"- c #18021F",
"; c #240202",
": c #2C0102",
"> c #320102",
", c #3B0101",
"< c #37010C",
"1 c #3A030E",
"2 c #2B0314",
"3 c #32021A",
"4 c #000020",
"5 c #1A1E26",
"6 c #151E34",
"7 c #002027",
"8 c #450101",
"9 c #4C0101",
"0 c #43010A",
"q c #4A020B",
"w c #480909",
"e c #530202",
"r c #5D0101",
"t c #50040A",
"y c #5C0409",
"u c #460511",
"i c #4D0412",
"p c #4A1414",
"a c #660000",
"s c #6A0101",
"d c #670F0F",
"f c #6B0C0C",
"g c #671212",
"h c #681212",
"j c #6A1D1D",
"k c #401720",
"l c #6C2222",
"z c #6D2A2A",
"x c #713636",
"c c #743E3E",
"v c #754141",
"b c #7C4C4C",
"n c #855F5F",
"m c #866363",
"M c #8A6565",
"N c #A68E8E",
"B c #AE9C9C",
"V c #B4A4A4",
"C c #D9D2D2",
"Z c #E1DADA",
"A c #E5E1E1",
"S c #E8E4E4",
"D c #EDEAEA",
"F c #F2EFEF",
"G c #F3F1F1",
"H c #FEFEFE",
"J c None",
/* pixels */
"JJJJJJJJJJJJJJJJJJJJJJJJJJJJJJJJJJJJJJJJJJJJJJJJJJJJJJJJJJJJJJJJ",
"JJJJJJJJJJJJJJJJJJJJJJJJJJJJJJJJJJJJJJJJJJJJJJJJJJJJJJJJJJJJJJJJ",
"JJJJJJJJJJJJJJJJJJJJJJJJJJJJJJJJJJJJJJJJJJJJJJJJJJJJJJJJJJJJJJJJ",
"JJJJJJJJJJJJJJJJJJJJJJJJJJJJJJJJJJJJJJJJJJJJJJJJJJJJJJJJJJJJJJJJ",
"JJJJJJJJJJJJJJJJJJJJJJJJJJJJJJJJJJJJJJJJJJJJJJJJJJJJJJJJJJJJJJJJ",
"JJJJJJJJJJJJJJJJJJJJJJJJJJJJJJJJJJJJJJJJJJJJJJJJJJJJJJJJJJJJJJJJ",
"JJJJJJJJJJJJJJJJJJJJJJJJJJJJJJJJJJJJJJJJJJJJJJJJJJJJJJJJJJJJJJJJ",
"JJJJJJJJJJJJJJJJJJJJJJJJJJJJJJJJJJJJJJJJJJJJJJJJJJJJJJJJJJJJJJJJ",
"JJJJJJJJJJJJJJJJJJJJJJJJJJJJJJJJJJJJJJJJJJJJJJJJJJJJJJJJJJJJJJJJ",
"JJJJJJJJJJJJJJJJJJJJJJJJJJJJJJJJJJJJJJJJJJJJJJJJJJJJJJJJJJJJJJJJ",
"JJJJJJJJJJJJJJJJJJJJJJJJJJJJJJJJJJJJJJJJJJJJJJJJJJJJJJJJJJJJJJJJ",
"JJJJJJJJJJX             .JJJJJJJJJJX .     .      JJJJJJJJJJJJJJ",
"JJJJJJJJJJ.............O.JJJJJJJJJJ%    .  .   . @JJJJJJJJJJJJJJ",
"JJJJJJJJJJ              JJJJJJJJJJJ$              JJJJJJJJJJJJJJ",
"JJJJJJJJJJ8988pppw8888888JJJJJJJJJJtreeeeeeeeeeeeeJJJJJJJJJJJJJJ",
"JJJJJJ$. +assarrrassssss9 .oJJJJo. rsssssssssssssf+ @JJJJJJJJJJJ",
"JJJJJJ$  OaaalMmMcaaaaas9  XJJJJ   raaaaaaaaaaaaaa  XJJJJJJJJJJJ",
"JJJJJJX  Orj9NHGHV9laaaaw@;#JJJJ#++ysaaaaaaaaaaaaa;+;JJJJJJJJJJJ",
"JJJ&&&qarrjxeBHHHV9laaaasaas2&$usaaaaaaaaaaaaasaaasfsi&$&JJJJJJJ",
"JJJ.  esasrr,NHHHV9laaaaaaas,  9sasaaaaaaaaaaaaaaaaas9 .XJJJJJJJ",
"JJJ   eaarbnxBHGHB9laaaaaaaa:  8saaaaaaaaaaaaaaaaaars9 .XJJJJJJJ",
"JJJ   efaaZHHDbvbzaaaaaaaaas8;:essaasaaaaaaaaaaaaaaas9 .XJJJJJJJ",
"JJJ.  efrrSHHGaerafaaaaaaaaassssaaaaaaaaaaaaaaaaaaaas9 .XJJJJJJJ",
"JJJ   rfaaAHHDlajaaaaaaaaaaaaaaaaaaaaaaaaaaaaaasaaaas9 .XJJJJJJJ",
"JJJ.  rfarAHHGjrgaaaaasaaaaaaaaaaaaaaaaaaaaaaaaaaaaas9 .XJJJJJJJ",
"JJJ   rfarAHHFlahaaaaaaaaaaaaaaaaaaaaaaaaaasaaaaaaaas8 .XJJJJJJJ",
"JJJ.  rfarAHHGjahaaaaaaasaaaaaaaaaaaaaaaaaaaaaaaaaaas9 .XJJJJJJJ",
"JJJ   rfarSHHGjrhaaaaaaaaaaaaasaaasaaasaaaaaaaaaaaass9 .XJJJJJJJ",
"JJJ.  afaaCGGAjafaaaaaaaaaaaasaaaaaaaaaaaasasaaaaasase .XJJJJJJJ",
"JJJ   qe89gjgjaaaaaaaaaaaaaaaaaaaaaaaaaaaaaaaaaaaae8t0 .XJJJJJJJ",
"JJJJJJ$  ;aaaaaaaaaaaaaaaaaaaaaaaaaaasaaaaaaaaaaaa   JJJJJJJJJJJ",
"JJJJJJo@ :fgggaaaaaaaaasaaaaaaaasaaaaaaaaaaaaaaaarO.@JJJJJJJJJJJ",
"JJJJJJ$  :saaaaaaasaaaaaaaaaaaaaaaaaaaaaaaaaaaaasa.  JJJJJJJJJJJ",
"JJJJJJ$. :aaaaaaaaaaaaasaaaaaaaaaaaasaaaaaasaaaaaa. oJJJJJJJJJJJ",
"JJJJJJ$  :saaaaaaaaaaaaaaaaaaaaaaaaaaaaaaaaaaaaaar.  JJJJJJJJJJJ",
"JJJJJJ$  ;saaaaaaaaaaaaaaaaaasaaaaaaaaaaaaaaaaaasa.  JJJJJJJJJJJ",
"JJJJJJ&. :sasaaaaaaaaaaasaaaasaaaaasasaaaasaaaaasaO oJJJJJJJJJJJ",
"JJJJJJJJJJ<,:esaaaaaaaaaaaaaaaaaaaaaaaaaaaaaaa8>,kJJJJJJJJJJJJJJ",
"JJJJJJJJJJX  wsaaasaaasaaaaaaaaaaaaaaaaaaaaaaa:  7JJJJJJJJJJJJJJ",
"JJJJJJJJJJoO 9ssaaaaaaaaaaaaaaaaaaaaaaaaaaaaaa, O5JJJJJJJJJJJJJJ",
"JJJJJJJJJJ$o$qssssaaaaaaaaaaaaaaaaaaaaaaaassss1&.6JJJJJJJJJJJJJJ",
"JJJJJJJJJJJJJJ>::raaaaaaaaaaaaaaaasaaaaaase;::JJJJJJJJJJJJJJJJJJ",
"JJJJJJJJJJJJJJ   raaaasaasaaaaaaaaaaaaaaas8   JJJJJJJJJJJJJJJJJJ",
"JJJJJJJJJJJJJJo..raasaaaaaaaaasaaaaaaaasss9 O.JJJJJJJJJJJJJJJJJJ",
"JJJJJJJJJJJJJJ&&&yaaaaasaaaaaaaaaaaaaaaaasi&*&JJJJJJJJJJJJJJJJJJ",
"JJJJJJJJJJJJJJJJJ@# :aaaaaaaasaaaaaaasa;.@@JJJJJJJJJJJJJJJJJJJJJ",
"JJJJJJJJJJJJJJJJJ   ;aaaaaaaaaaaaaaaaaa+   JJJJJJJJJJJJJJJJJJJJJ",
"JJJJJJJJJJJJJJJJJ . >ssssaaaaaaaaaasasa+ . JJJJJJJJJJJJJJJJJJJJJ",
"JJJJJJJJJJJJJJJJJJ=43ryraaaaaaaaaasayay-44JJJJJJJJJJJJJJJJJJJJJJ",
"JJJJJJJJJJJJJJJJJJJJJ   waaaaaaaaas9   JJJJJJJJJJJJJJJJJJJJJJJJJ",
"JJJJJJJJJJJJJJJJJJJJJ   8saaaaaaaas9   JJJJJJJJJJJJJJJJJJJJJJJJJ",
"JJJJJJJJJJJJJJJJJJJJJ.@ 9ssaaaaasase ..JJJJJJJJJJJJJJJJJJJJJJJJJ",
"JJJJJJJJJJJJJJJJJJJJJJJJ,8,8aaaa,,w1JJJJJJJJJJJJJJJJJJJJJJJJJJJJ",
"JJJJJJJJJJJJJJJJJJJJJJJJJ  +aaay   JJJJJJJJJJJJJJJJJJJJJJJJJJJJJ",
"JJJJJJJJJJJJJJJJJJJJJJJJJ. :aasa .oJJJJJJJJJJJJJJJJJJJJJJJJJJJJJ",
"JJJJJJJJJJJJJJJJJJJJJJJJJ  ;aaar   JJJJJJJJJJJJJJJJJJJJJJJJJJJJJ",
"JJJJJJJJJJJJJJJJJJJJJJJJJJJJ2;;2JJJJJJJJJJJJJJJJJJJJJJJJJJJJJJJJ",
"JJJJJJJJJJJJJJJJJJJJJJJJJJJJ&  $JJJJJJJJJJJJJJJJJJJJJJJJJJJJJJJJ",
"JJJJJJJJJJJJJJJJJJJJJJJJJJJJ* .$JJJJJJJJJJJJJJJJJJJJJJJJJJJJJJJJ",
"JJJJJJJJJJJJJJJJJJJJJJJJJJJJ*  &JJJJJJJJJJJJJJJJJJJJJJJJJJJJJJJJ",
"JJJJJJJJJJJJJJJJJJJJJJJJJJJJJJJJJJJJJJJJJJJJJJJJJJJJJJJJJJJJJJJJ",
"JJJJJJJJJJJJJJJJJJJJJJJJJJJJJJJJJJJJJJJJJJJJJJJJJJJJJJJJJJJJJJJJ",
"JJJJJJJJJJJJJJJJJJJJJJJJJJJJJJJJJJJJJJJJJJJJJJJJJJJJJJJJJJJJJJJJ",
"JJJJJJJJJJJJJJJJJJJJJJJJJJJJJJJJJJJJJJJJJJJJJJJJJJJJJJJJJJJJJJJJ"
};
